<?xml version="1.0" standalone="no"?><!DOCTYPE svg PUBLIC "-//W3C//DTD SVG 1.1//EN" "http://www.w3.org/Graphics/SVG/1.1/DTD/svg11.dtd"><svg t="1663140149019" class="icon" viewBox="0 0 1024 1024" version="1.1" xmlns="http://www.w3.org/2000/svg" p-id="8743" xmlns:xlink="http://www.w3.org/1999/xlink" width="200" height="200"><path d="M64.383234 64.383234l0 716.186826 122.720575 0 0 102.602347 0 47.768271L187.103808 959.616766l35.980008-28.797701 23.702228-18.970571 0 0L410.80693 780.57006 959.616766 780.57006 959.616766 64.383234 64.383234 64.383234zM899.934531 720.887824 410.80693 720.887824l-20.942946 0-16.351297 13.08717-126.726643 101.429142L246.786044 780.57006l0-59.682236-59.682236 0L124.065469 720.887824l0-596.822355 775.869062 0L899.934531 720.887824z" p-id="8744"></path><path d="M243.42994 362.794411l119.364471 0 0 119.364471-119.364471 0 0-119.364471Z" p-id="8745"></path><path d="M452.317764 362.794411l119.364471 0 0 119.364471-119.364471 0 0-119.364471Z" p-id="8746"></path><path d="M661.205589 362.794411l119.364471 0 0 119.364471-119.364471 0 0-119.364471Z" p-id="8747"></path></svg>