<?xml version="1.0" standalone="no"?><!DOCTYPE svg PUBLIC "-//W3C//DTD SVG 1.1//EN" "http://www.w3.org/Graphics/SVG/1.1/DTD/svg11.dtd"><svg t="1667548014431" class="icon" viewBox="0 0 1024 1024" version="1.1" xmlns="http://www.w3.org/2000/svg" p-id="1965" xmlns:xlink="http://www.w3.org/1999/xlink" width="200" height="200"><path d="M353.28 85.333333c16.384 0 29.738667 13.312 29.738667 29.781334V164.693333h257.962666V115.114667a29.781333 29.781333 0 1 1 59.562667 0V164.693333h128.981333A109.141333 109.141333 0 0 1 938.666667 273.92v555.648A109.141333 109.141333 0 0 1 829.525333 938.666667H194.474667A109.141333 109.141333 0 0 1 85.333333 829.525333V273.877333A109.141333 109.141333 0 0 1 194.474667 164.693333h128.981333V115.114667c0-16.469333 13.354667-29.781333 29.781333-29.781334zM194.432 224.256c-27.392 0-49.621333 22.186667-49.621333 49.621333v555.648c0 27.392 22.229333 49.621333 49.621333 49.621334h635.050667c27.392 0 49.621333-22.186667 49.621333-49.621334V273.877333c0-27.434667-22.186667-49.621333-49.621333-49.621333H194.474667z m9.941333 168.661333c0-16.426667 13.312-29.738667 29.738667-29.738666h555.690667a29.781333 29.781333 0 0 1 0 59.52H234.154667a29.781333 29.781333 0 0 1-29.738667-29.781334z m0 158.762667c0-16.426667 13.312-29.738667 29.738667-29.738667H533.333333a29.781333 29.781333 0 1 1 0 59.52H234.154667a29.781333 29.781333 0 0 1-29.738667-29.781333z m406.826667 0c0-16.426667 13.312-29.738667 29.738667-29.738667h148.864a29.781333 29.781333 0 1 1 0 59.52h-148.864a29.781333 29.781333 0 0 1-29.738667-29.781333zM204.373333 710.442667c0-16.426667 13.312-29.738667 29.738667-29.738667h555.690667a29.781333 29.781333 0 1 1 0 59.52H234.154667a29.781333 29.781333 0 0 1-29.738667-29.781333z" p-id="1966"></path></svg>