<?xml version="1.0" standalone="no"?><!DOCTYPE svg PUBLIC "-//W3C//DTD SVG 1.1//EN" "http://www.w3.org/Graphics/SVG/1.1/DTD/svg11.dtd"><svg t="1663140056344" class="icon" viewBox="0 0 1024 1024" version="1.1" xmlns="http://www.w3.org/2000/svg" p-id="3300" xmlns:xlink="http://www.w3.org/1999/xlink" width="200" height="200"><path d="M957.44 156.672q8.192 10.24 13.312 26.624t-6.144 34.816q-5.12 9.216-10.24 16.384t-8.192 12.288q-4.096 6.144-7.168 11.264l-144.384-88.064q6.144-8.192 14.336-20.48t13.312-19.456q14.336-18.432 33.792-20.992t32.768 0.512q14.336 3.072 34.816 16.384t33.792 30.72zM547.84 576.512q3.072-4.096 13.312-21.504t25.6-43.008 34.304-56.32 38.4-62.464q45.056-73.728 100.352-165.888l144.384 88.064q-55.296 92.16-100.352 165.888-19.456 31.744-37.888 62.464t-33.28 55.296-25.088 40.448-11.264 18.944q-5.12 7.168-11.264 15.872t-14.336 13.824q-9.216 6.144-24.576 15.36t-32.256 18.432-31.744 17.92-23.04 12.8q-15.36 7.168-24.576 2.56t-7.168-22.016q1.024-9.216 1.536-26.624t1.024-35.84 1.536-34.816 3.072-22.528q2.048-10.24 4.608-18.432t8.704-18.432zM784.384 604.16q40.96 20.48 67.584 52.736t26.624 71.168q0 40.96-28.672 77.312t-79.36 63.488-118.784 43.008-147.968 15.872q-81.92 0-149.504-15.36t-115.712-41.984-75.264-62.464-27.136-76.8 26.112-78.336 75.264-65.536 119.808-44.032 159.744-14.848l-31.744 65.536q-51.2 2.048-94.72 13.824t-74.752 31.232-48.128 43.008-14.848 48.128q2.048 26.624 24.576 47.616t57.856 35.328 80.384 21.504 92.16 7.168q61.44 1.024 111.104-9.216t84.48-27.648 53.76-39.424 18.944-45.568q0-18.432-9.216-30.72t-21.504-20.48z" p-id="3301"></path></svg>