<?xml version="1.0" standalone="no"?><!DOCTYPE svg PUBLIC "-//W3C//DTD SVG 1.1//EN" "http://www.w3.org/Graphics/SVG/1.1/DTD/svg11.dtd"><svg t="1663140163617" class="icon" viewBox="0 0 1024 1024" version="1.1" xmlns="http://www.w3.org/2000/svg" p-id="9441" xmlns:xlink="http://www.w3.org/1999/xlink" width="200" height="200"><path d="M760.375775 428.798721c-12.485309 0-22.514491 10.029182-22.514491 22.514491l0 379.676194L240.495703 830.989406 240.495703 153.507895l383.769738 0c12.485309 0 22.514491-10.029182 22.514491-22.514491s-10.029182-22.514491-22.514491-22.514491L224.940236 108.478913c-16.271837 0-29.473516 13.201679-29.473516 29.473516l0 708.490106c0 16.271837 13.201679 29.473516 29.473516 29.473516l528.374175 0c16.271837 0 29.473516-13.201679 29.473516-29.473516L782.787927 451.313212C782.890266 438.827903 772.861083 428.798721 760.375775 428.798721z" p-id="9442"></path><path d="M875.302019 181.958025l-57.104937-68.464521c-3.377174-4.093544-9.51749-4.605237-13.611033-1.228063L645.142514 245.407955l-51.06696-61.096142c-4.093544-4.809914-12.689986-1.739756-13.918049 4.912253l-33.669398 197.104138c-0.71637 4.298221 2.251449 7.777733 6.54967 7.880072l199.969618 2.149111c6.754347 0.102339 11.359584-7.880072 7.26604-12.792325l-45.745353-54.751149 159.443534-133.142514C878.1675 192.089546 878.781531 186.051569 875.302019 181.958025z" p-id="9443"></path><path d="M463.593844 290.641615c0-12.485309-10.029182-22.514491-22.514491-22.514491L324.413352 268.127124c-12.485309 0-22.514491 10.029182-22.514491 22.514491l0 0c0 12.485309 10.029182 22.514491 22.514491 22.514491l116.666 0C453.564661 313.156106 463.593844 303.126924 463.593844 290.641615L463.593844 290.641615z" p-id="9444"></path><path d="M463.593844 360.231861c0-12.485309-10.029182-22.514491-22.514491-22.514491L324.413352 337.71737c-12.485309 0-22.514491 10.029182-22.514491 22.514491l0 0c0 12.485309 10.029182 22.514491 22.514491 22.514491l116.666 0C453.564661 382.746352 463.593844 372.71717 463.593844 360.231861L463.593844 360.231861z" p-id="9445"></path><path d="M632.554867 445.172896l-309.062562 0c-12.38297 0-22.514491 10.131521-22.514491 22.514491 0 12.38297 10.131521 22.514491 22.514491 22.514491l309.062562 0c12.38297 0 22.514491-10.131521 22.514491-22.514491C655.069358 455.304417 644.937837 445.172896 632.554867 445.172896z" p-id="9446"></path><path d="M632.554867 516.809914l-309.062562 0c-12.38297 0-22.514491 10.131521-22.514491 22.514491s10.131521 22.514491 22.514491 22.514491l309.062562 0c12.38297 0 22.514491-10.131521 22.514491-22.514491S644.937837 516.809914 632.554867 516.809914z" p-id="9447"></path><path d="M632.554867 593.563862l-309.062562 0c-12.38297 0-22.514491 10.131521-22.514491 22.514491s10.131521 22.514491 22.514491 22.514491l309.062562 0c12.38297 0 22.514491-10.131521 22.514491-22.514491S644.937837 593.563862 632.554867 593.563862z" p-id="9448"></path><path d="M654.96702 728.65081c0-12.485309-10.029182-22.514491-22.514491-22.514491L515.786528 706.136318c-12.485309 0-22.514491 10.029182-22.514491 22.514491l0 0c0 12.485309 10.029182 22.514491 22.514491 22.514491l116.666 0C644.937837 751.165301 654.96702 741.136118 654.96702 728.65081L654.96702 728.65081z" p-id="9449"></path></svg>