<?xml version="1.0" standalone="no"?><!DOCTYPE svg PUBLIC "-//W3C//DTD SVG 1.1//EN" "http://www.w3.org/Graphics/SVG/1.1/DTD/svg11.dtd"><svg t="1679470166563" class="icon" viewBox="0 0 1024 1024" version="1.1" xmlns="http://www.w3.org/2000/svg" p-id="1795" xmlns:xlink="http://www.w3.org/1999/xlink" width="200" height="200"><path d="M977.92 993.28H271.36c-14.336 0-25.6-11.264-25.6-25.6v-204.8c0-14.336 11.264-25.6 25.6-25.6s25.6 11.264 25.6 25.6v179.2h655.36V286.72h-184.32c-14.336 0-25.6-11.264-25.6-25.6s11.264-25.6 25.6-25.6h209.92c14.336 0 25.6 11.264 25.6 25.6v706.56c0 14.336-11.264 25.6-25.6 25.6z" p-id="1796"></path><path d="M747.52 793.6H40.96c-14.336 0-25.6-11.264-25.6-25.6V61.44c0-14.336 11.264-25.6 25.6-25.6h706.56c14.336 0 25.6 11.264 25.6 25.6v706.56c0 14.336-11.264 25.6-25.6 25.6zM66.56 742.4h655.36V87.04H66.56v655.36z" p-id="1797"></path><path d="M563.2 256H225.28c-14.336 0-25.6-11.264-25.6-25.6s11.264-25.6 25.6-25.6h337.92c14.336 0 25.6 11.264 25.6 25.6s-11.264 25.6-25.6 25.6zM747.52 435.2H414.72c-14.336 0-25.6-11.264-25.6-25.6s11.264-25.6 25.6-25.6h332.8c14.336 0 25.6 11.264 25.6 25.6s-11.264 25.6-25.6 25.6zM563.2 614.4H225.28c-14.336 0-25.6-11.264-25.6-25.6s11.264-25.6 25.6-25.6h337.92c14.336 0 25.6 11.264 25.6 25.6s-11.264 25.6-25.6 25.6z" p-id="1798"></path><path d="M461.824 530.432c-6.656 0-13.312-2.56-17.92-7.68L352.256 431.104c-9.728-9.728-10.24-26.112 0-36.352l91.648-92.16c9.728-10.24 26.112-10.24 36.352 0 10.24 9.728 10.24 26.112 0 36.352L406.528 413.184l73.728 73.728c10.24 10.24 10.24 26.112 0 36.352-5.12 4.608-11.776 7.168-18.432 7.168z" p-id="1799"></path></svg>