<?xml version="1.0" standalone="no"?><!DOCTYPE svg PUBLIC "-//W3C//DTD SVG 1.1//EN" "http://www.w3.org/Graphics/SVG/1.1/DTD/svg11.dtd"><svg t="1663140242919" class="icon" viewBox="0 0 1024 1024" version="1.1" xmlns="http://www.w3.org/2000/svg" p-id="13198" xmlns:xlink="http://www.w3.org/1999/xlink" width="200" height="200"><path d="M223.807 396.741h395.228v32.928h-395.228v-32.928z" p-id="13199"></path><path d="M509.483 923.692h-384.475v-592.821h230.543v-230.543h362.284v494.029c22.887 0 44.988 3.349 65.858 9.559v-569.461h-494.014l-230.543 230.543v724.47l497.342 0.074c-19.291-18.905-35.271-41.168-46.995-65.851z" p-id="13200"></path><path d="M223.807 462.614h395.228v32.928h-395.228v-32.928z" p-id="13201"></path><path d="M223.807 528.485h395.228v32.928h-395.228v-32.928z" p-id="13202"></path><path d="M223.807 594.356h230.544v32.928h-230.544v-32.928z" p-id="13203"></path><path d="M717.835 750.798c-22.73 0-41.17 18.449-41.17 41.18 0 22.718 18.441 41.172 41.17 41.172 22.717 0 41.171-18.454 41.171-41.172 0-22.731-18.454-41.18-41.171-41.18z" p-id="13204"></path><path d="M717.835 627.285c-136.419 0-247.026 164.691-247.026 164.691s110.607 164.684 247.026 164.684c136.42 0 247.026-164.684 247.026-164.684s-110.607-164.691-247.026-164.691M717.835 894.905c-56.838 0-102.928-46.101-102.928-102.928 0-56.859 46.090-102.934 102.928-102.934 56.839 0 102.929 46.076 102.929 102.934 0 56.826-46.090 102.928-102.929 102.928z" p-id="13205"></path></svg>