<svg id="_1.1比例" data-name="1.1比例" xmlns="http://www.w3.org/2000/svg" width="60" height="60" viewBox="0 0 60 60">
  <rect id="矩形_601" data-name="矩形 601" width="60" height="60" fill="#2f80ed" opacity="0"/>
  <path id="比例icon" d="M122.287,164.516H88.052a5.712,5.712,0,0,1-5.706-5.706V133.706A5.714,5.714,0,0,1,88.052,128h34.234a5.712,5.712,0,0,1,5.706,5.706v25.105A5.711,5.711,0,0,1,122.287,164.516ZM88.052,130.282a3.428,3.428,0,0,0-3.423,3.423v25.105a3.428,3.428,0,0,0,3.423,3.423h34.234a3.428,3.428,0,0,0,3.423-3.423V133.706a3.428,3.428,0,0,0-3.423-3.423ZM96.04,155.4a1.141,1.141,0,0,1-2.282,0V137.143a1.141,1.141,0,1,1,2.282,0Zm20.54,0a1.141,1.141,0,0,1-2.282,0V137.143a1.141,1.141,0,1,1,2.282,0Zm-11.411-15.99a2.282,2.282,0,1,0,2.282,2.282A2.28,2.28,0,0,0,105.169,139.411Zm0,9.129a2.282,2.282,0,1,0,2.282,2.282A2.28,2.28,0,0,0,105.169,148.54Z" transform="translate(-75.012 -116.156)" fill="#fff"/>
</svg>
