<svg id="圆框箭头" xmlns="http://www.w3.org/2000/svg" width="60" height="60" viewBox="0 0 60 60">
  <rect id="矩形_601" data-name="矩形 601" width="60" height="60" fill="#2f80ed" opacity="0"/>
  <g id="_30下一页_后一页" data-name="30下一页、后一页" transform="translate(11.422 11)">
    <path id="路径_1229" data-name="路径 1229" d="M510.984,510.908l-.075.075Zm-.084-.008.092.092A.952.952,0,0,1,510.9,510.9Z" transform="translate(-492.155 -492.159)" fill="#fff"/>
    <path id="路径_1230" data-name="路径 1230" d="M386.152,299.935l.075-.075.913-.913,6.941-6.941a1.339,1.339,0,1,1,1.893,1.893l-6.941,6.945,6.945,6.941a1.342,1.342,0,1,1-1.9,1.9l-6.941-6.941-.9-.9-.092-.092a1.351,1.351,0,0,1,0-1.814Z" transform="translate(-372.291 -282.057)" fill="#fff"/>
    <path id="路径_1231" data-name="路径 1231" d="M82.291,101.074a18.754,18.754,0,1,0-7.31-1.479A18.675,18.675,0,0,0,82.291,101.074Zm0-34.851A16.064,16.064,0,1,1,66.227,82.287,16.08,16.08,0,0,1,82.291,66.223Z" transform="translate(-63.5 -63.5)" fill="#fff"/>
  </g>
</svg>
