<svg id="适应屏幕两边" xmlns="http://www.w3.org/2000/svg" width="60" height="60" viewBox="0 0 60 60">
  <rect id="矩形_601" data-name="矩形 601" width="60" height="60" fill="#2f80ed" opacity="0"/>
  <path id="比例icon" d="M122.072,164.943H88.022c-3.128,0-5.675-2.172-5.675-4.844V132.844c0-2.67,2.547-4.844,5.675-4.844h34.05c3.13,0,5.675,2.174,5.675,4.844V160.1C127.747,162.771,125.2,164.943,122.072,164.943Zm-34.05-35.006a3.189,3.189,0,0,0-3.405,2.906V160.1a3.189,3.189,0,0,0,3.405,2.906h34.05a3.189,3.189,0,0,0,3.405-2.906V132.844a3.189,3.189,0,0,0-3.405-2.906Z" transform="translate(-75.047 -116.472)" fill="#fff" stroke="#fff" stroke-width="0.5"/>
  <path id="屏幕_全屏" d="M.306.305a1.043,1.043,0,0,1,1.474,0l5.173,5.17V2.433l.01-.142a1.043,1.043,0,0,1,2.076.142v5.91l-.011.125a.7.7,0,0,1-.684.57H2.433l-.142-.01A1.043,1.043,0,0,1,1.39,8l.01-.142a1.043,1.043,0,0,1,1.033-.9H5.479L.306,1.779.2,1.662A1.043,1.043,0,0,1,.306.305Z" transform="translate(33.708 30.038) rotate(-45)" fill="#fff"/>
  <path id="屏幕_全屏-2" data-name="屏幕_全屏" d="M.306,8.733a1.043,1.043,0,0,0,1.474,0l5.173-5.17V6.605l.01.142a1.043,1.043,0,0,0,2.076-.142V.7L9.027.57A.7.7,0,0,0,8.343,0H2.433L2.291.01a1.043,1.043,0,0,0-.9,1.033l.01.142a1.043,1.043,0,0,0,1.033.9H5.479L.306,7.259l-.1.117a1.043,1.043,0,0,0,.1,1.357Z" transform="translate(20.573 36.429) rotate(-135)" fill="#fff"/>
</svg>
