<svg id="目录" xmlns="http://www.w3.org/2000/svg" width="60" height="60" viewBox="0 0 60 60">
  <rect id="矩形_601" data-name="矩形 601" width="60" height="60" fill="#2f80ed" opacity="0"/>
  <path id="列_列表" data-name="列,列表" d="M0,98.586v30.38a.648.648,0,0,0,.646.646H40.723a.648.648,0,0,0,.646-.646V98.586A2.588,2.588,0,0,0,38.784,96H2.586A2.588,2.588,0,0,0,0,98.586Zm2.747,5.171H19.23a.162.162,0,0,1,.162.162v22.947a.162.162,0,0,1-.162.162H2.747a.162.162,0,0,1-.162-.162V103.918A.162.162,0,0,1,2.747,103.757Zm35.875,23.27H22.139a.162.162,0,0,1-.162-.162V103.918a.162.162,0,0,1,.162-.162H38.622a.162.162,0,0,1,.162.162v22.947A.162.162,0,0,1,38.622,127.027Zm.162-25.856H2.586V99.878a1.291,1.291,0,0,1,1.293-1.293H37.491a1.291,1.291,0,0,1,1.293,1.293Z" transform="translate(10 -83)" fill="#fff"/>
</svg>
