<svg id="关闭icon" xmlns="http://www.w3.org/2000/svg" width="60" height="60" viewBox="0 0 60 60">
  <rect id="矩形_602" data-name="矩形 602" width="60" height="60" fill="#2f80ed" opacity="0"/>
  <path id="关闭icon-2" data-name="关闭icon" d="M82.56,101.119a18.56,18.56,0,1,1,18.56-18.56A18.58,18.58,0,0,1,82.56,101.119Zm0-34.456a15.9,15.9,0,1,0,15.9,15.9A15.914,15.914,0,0,0,82.56,66.663Zm1.867,15.953,5.732-5.67a1.326,1.326,0,0,0-1.864-1.885l-5.74,5.677L76.9,75.068a1.326,1.326,0,0,0-1.877,1.872L80.669,82.6l-5.691,5.63a1.326,1.326,0,1,0,1.864,1.885l5.7-5.637,5.746,5.764a1.325,1.325,0,0,0,1.877-1.872Z" transform="translate(-52.506 -52.941)" fill="#fff"/>
</svg>
